<svg xmlns="http://www.w3.org/2000/svg" fill="none" viewBox="0 0 96 96" height="96" width="96">
<path fill="#AEB4BC" d="M34.6866 88.3038C30.0195 88.2894 24.6591 86.4359 19.1426 80.9194V52.3037H42.8425L57.3319 66.7931C53.7152 70.4098 47.8513 70.4098 44.2346 66.7931L38.0411 60.5996L36.0225 62.6182L45.6283 72.3274L75.1426 72.3274C75.1426 81.1445 67.9949 88.2922 59.1779 88.2922L34.6866 88.3038Z" clip-rule="evenodd" fill-rule="evenodd" opacity="0.2"></path>
<path fill="#AEB4BC" d="M8.00391 52.3037H19.1433V88.3037H8.00391L8.00391 52.3037Z" opacity="0.5"></path>
<path fill="#AEB4BC" d="M88.0018 7.93311H30.25V48.3594H88.0018V7.93311ZM41.8004 13.7083H76.4515C76.4515 15.8459 77.6128 17.7123 79.339 18.7109C80.1885 19.2022 81.1747 19.4835 82.2266 19.4835V36.809C81.1747 36.809 80.1885 37.0902 79.339 37.5816C77.6128 38.5802 76.4515 40.4466 76.4515 42.5842H41.8004C41.8004 40.4466 40.639 38.5802 38.9128 37.5816C38.0633 37.0902 37.0771 36.809 36.0252 36.809V19.4835C37.0771 19.4835 38.0633 19.2022 38.9128 18.7109C40.639 17.7123 41.8004 15.8459 41.8004 13.7083Z" clip-rule="evenodd" fill-rule="evenodd" opacity="0.2"></path>
<path fill="#F0B90B" d="M66.3447 28.1463C66.3447 24.1593 63.1127 20.9273 59.1257 20.9273C55.1388 20.9273 51.9068 24.1593 51.9068 28.1463C51.9068 32.1332 55.1388 35.3652 59.1257 35.3652C63.1127 35.3652 66.3447 32.1332 66.3447 28.1463ZM41.0781 28.1463L43.9657 31.0338L46.8533 28.1463L43.9657 25.2587L41.0781 28.1463ZM74.2851 31.0338L71.3975 28.1463L74.2851 25.2587L77.1727 28.1463L74.2851 31.0338Z" clip-rule="evenodd" fill-rule="evenodd"></path>
</svg>
